/* XPM */
const char * Targets_xpm[] = {
"48 48 151 2",
"  	c None",
". 	c #A7A7A7",
"+ 	c #3C3C3C",
"@ 	c #4A4A4A",
"# 	c #898989",
"$ 	c #5D5D5D",
"% 	c #8C8C8C",
"& 	c #AAAAAA",
"* 	c #000000",
"= 	c #646464",
"- 	c #868686",
"; 	c #B7B7B7",
"> 	c #B1B1B1",
", 	c #AEAEAE",
"' 	c #262626",
") 	c #292929",
"! 	c #373737",
"~ 	c #CCCCCC",
"{ 	c #585858",
"] 	c #707070",
"^ 	c #333333",
"/ 	c #535353",
"( 	c #404040",
"_ 	c #303030",
": 	c #A8A8A8",
"< 	c #D2D2D2",
"[ 	c #2A2A2A",
"} 	c #BEBEBE",
"| 	c #9C9C9C",
"1 	c #212121",
"2 	c #616161",
"3 	c #484848",
"4 	c #171717",
"5 	c #7E7E7E",
"6 	c #1A1A1A",
"7 	c #9F9F9F",
"8 	c #6F6F6F",
"9 	c #B5B5B5",
"0 	c #797979",
"a 	c #C5C5C5",
"b 	c #AFAFAF",
"c 	c #2F2F2F",
"d 	c #6A6A6A",
"e 	c #4D4D4D",
"f 	c #C6C6C6",
"g 	c #717171",
"h 	c #747474",
"i 	c #CBCBCB",
"j 	c #969696",
"k 	c #101010",
"l 	c #727272",
"m 	c #606060",
"n 	c #4B4B4B",
"o 	c #CDCDCD",
"p 	c #979797",
"q 	c #C4C4C4",
"r 	c #828282",
"s 	c #909090",
"t 	c #5E5E5E",
"u 	c #D0D0D0",
"v 	c #7D7D7D",
"w 	c #636363",
"x 	c #666666",
"y 	c #1D1D1D",
"z 	c #454545",
"A 	c #CACACA",
"B 	c #555555",
"C 	c #2D2D2D",
"D 	c #464646",
"E 	c #8F8F8F",
"F 	c #C1C1C1",
"G 	c #9A9A9A",
"H 	c #B2B2B2",
"I 	c #858585",
"J 	c #0F0F0F",
"K 	c #383838",
"L 	c #070707",
"M 	c #0A0A0A",
"N 	c #0B0B0B",
"O 	c #B0B0B0",
"P 	c #949494",
"Q 	c #505050",
"R 	c #A3A3A3",
"S 	c #B6B6B6",
"T 	c #050505",
"U 	c #767676",
"V 	c #4C4C4C",
"W 	c #A2A2A2",
"X 	c #080808",
"Y 	c #777777",
"Z 	c #242424",
"` 	c #1C1C1C",
" .	c #878787",
"..	c #9D9D9D",
"+.	c #9B9B9B",
"@.	c #929292",
"#.	c #B4B4B4",
"$.	c #A6A6A6",
"%.	c #ACACAC",
"&.	c #818181",
"*.	c #0E0E0E",
"=.	c #BDBDBD",
"-.	c #686868",
";.	c #8E8E8E",
">.	c #C7C7C7",
",.	c #808080",
"'.	c #A0A0A0",
").	c #BBBBBB",
"!.	c #3666D4",
"~.	c #3A3A3A",
"{.	c #202020",
"].	c #848484",
"^.	c #CFCFCF",
"/.	c #6B6B6B",
"(.	c #B3B3B3",
"_.	c #8A8A8A",
":.	c #010101",
"<.	c #656565",
"[.	c #3B3B3B",
"}.	c #5C5C5C",
"|.	c #A4A4A4",
"1.	c #7C7C7C",
"2.	c #C8C8C8",
"3.	c #676767",
"4.	c #3F3F3F",
"5.	c #6E6E6E",
"6.	c #C3C3C3",
"7.	c #959595",
"8.	c #545454",
"9.	c #ADADAD",
"0.	c #414141",
"a.	c #C9C9C9",
"b.	c #CECECE",
"c.	c #252525",
"d.	c #989898",
"e.	c #4F4F4F",
"f.	c #BABABA",
"g.	c #7F7F7F",
"h.	c #9E9E9E",
"i.	c #999999",
"j.	c #BFBFBF",
"k.	c #626262",
"l.	c #838383",
"m.	c #222222",
"n.	c #030303",
"o.	c #040404",
"p.	c #6C6C6C",
"q.	c #232323",
"r.	c #0C0C0C",
"s.	c #C2C2C2",
"t.	c #E5E5E5",
"                                                                                                ",
". + @ @ #                   $ @ %                       & *                     = @ -           ",
". ;                       > ,   '                       @ )                   !     ~ {         ",
". ] %                     ^       /                   (   _         % % %             (         ",
". : < [                   ^       /                 } |   _       1 < < 2           3           ",
"        $                 ^       /                 4 5 5 6 7     8 5 5 9         0 a           ",
"(       $                 , b   [                         c             d       e               ",
"f g ] h         *         i g ] h                       ] 4 j     k ] ] l     m n ] ] (         ",
"                                                                                                ",
"                                                                                                ",
"      o                       o                           o                       o             ",
"    p *                   q r s t                       & *                   u v s w           ",
"  f x y                   | ;   z o                   A B _                   (       (         ",
"  C   y                   ^       /                   (   _         D D D             (         ",
"E F   y                   ^       /                 G H   _       k     I           /           ",
"J K K L 5                 ^       /                 M K K N ]     O K K P         Q             ",
"      y         R         > ,   '                         _       :     d       2     S         ",
"    [ T U       *           V [ W                       [ X x     k [ [ Y     Z ` [ [ (         ",
"                                                                                                ",
"                                                                                                ",
"    a  .                    .. .                          +.         . .                    @.  ",
"    p *                   #.$.  c               *       , %.      y     &.        *.*.: =.    -.",
"  ;.P y                   U >.  ,.'.          * * *     & #.    9       d     q 3     e ).    m ",
"  C   y                   ^       /           * !.*     ~.              d     {.              ].",
"8 ^.  y                   ^       /         * * * * *   ~.            /.(.    {.    _././.    ].",
"*.*.*.:.<.                [.      }.        * * !.!.*   ~.          0         [       |.).    ].",
"      y         $         > ,   '           * !.!.!.*   1.2.      3.H   |     q 4.    |.).    8 ",
"    ` ` 5.      `           V ` 6.          * !.!.* * * & #.    7.` ` ` `         ` ` 8.      m ",
"                                            * !.* !.!.* u t                                 m ; ",
"                                          * * * !.!.!.*                                         ",
"    9.0.].                  -.0.a.        * * !.!.!.* *   w         0.0.                    /   ",
"  C l                     > ,   '         * !.!.!.* !.* & #.    b.(     U     _ c.  w J a     m ",
"9 d.                      e.    f.h     * * !.!.* !.!.* & #.    u       d     q G     (       m ",
". g.D D ).                ^       /     * !.!.* !.!.!.* *               8     q /.h.h.(       ].",
". i.    ,.                ^       /     * !.* !.!.!.* !.*             c.      q &.j.j.(       ].",
". ;      .                2 u   7 #   * * * !.!.!.* !.!.*           h         q G     (       ].",
"  [.    2       4         > ,   '     * * !.!.!.* !.!.!.* *       c.    U     q G     (       = ",
"    k.k.        k.          &.k.b.  * * !.!.!.* !.!.!.* !.* *   > k.k.k.k.    k.k.  l.k.o     m ",
"                                  * * !.!.!.* !.!.!.* !.!.!.* *                             m.  ",
"                                * * !.!.!.* !.!.!.* !.!.!.* !.* *                               ",
". n.o.o.m                   * * * !.!.!.* !.!.!.* !.!.!.* !.!.!.* * * o.                    y   ",
". ;                 * * * * * * !.!.!.* !.!.!.* !.!.!.* !.!.!.* !.!.* * * * * p.B   d.q.<     m ",
". : <       * * * * * !.!.!.* !.!.!.* !.!.!.* !.!.!.* !.!.!.* !.!.!.* !.!.!.* * * *   (       w ",
". * * * * * * !.!.* !.!.!.* !.!.!.* !.!.!.* !.!.!.* !.!.!.* !.!.!.* !.!.!.* !.!.!.* * * * * * ].",
"  !.!.!.* !.!.!.* !.!.!.* !.!.!.* !.!.!.* !.!.!.* !.!.!.* !.!.!.* !.!.!.* !.!.!.* !.!.!.* !.!.].",
"h * * * * * * * * * * * * * * * * * * * * * * * * * * * * * * * * * * * * * * * * * * * * * * ].",
"#.+.S 4.  *     *   *     ).7.* z       *         *     & #.*   < r.S * 8.    | *   s.^   *   m ",
"t.#.:           :           S :                         & #.    o : : : :     : :   ; :       m "};
